<?xml version="1.0" encoding="utf-8"?>
<!-- Generator: Adobe Illustrator 24.3.0, SVG Export Plug-In . SVG Version: 6.00 Build 0)  -->
<svg version="1.1" id="Capa_1" xmlns="http://www.w3.org/2000/svg" xmlns:xlink="http://www.w3.org/1999/xlink" x="0px" y="0px"
	 viewBox="0 0 785.5 976" style="enable-background:new 0 0 785.5 976;" xml:space="preserve">
<style type="text/css">
	.st0{clip-path:url(#SVGID_2_);}
	.st1{fill:#0094FF;}
	.st2{fill-rule:evenodd;clip-rule:evenodd;fill:#FFFFFF;}
</style>
<g>
	<defs>
		<rect id="SVGID_1_" y="0" width="785.5" height="976"/>
	</defs>
	<clipPath id="SVGID_2_">
		<use xlink:href="#SVGID_1_"  style="overflow:visible;"/>
	</clipPath>
	<g class="st0">
		<path class="st1" d="M989.3-898.3L29.3,60.8c-39.1,39-39.1,102.3,0,141.4l960,959.1c39.1,39,102.4,39,141.5,0l960-959.1
			c39.1-39,39.1-102.3,0-141.4l-960-959.1C1091.7-937.4,1028.4-937.4,989.3-898.3z"/>
		<path class="st2" d="M447.1,644.7c0,1.8-1.5,3.3-3.3,3.3c-1.8,0-3.3-1.5-3.3-3.3c0-1.8,1.5-3.3,3.3-3.3
			C445.7,641.4,447.1,642.9,447.1,644.7z"/>
		<path class="st2" d="M480.2,644.7c0,1.8-1.5,3.3-3.3,3.3c-1.8,0-3.3-1.5-3.3-3.3c0-1.8,1.5-3.3,3.3-3.3
			C478.7,641.4,480.2,642.9,480.2,644.7z"/>
		<path class="st2" d="M513.3,644.7c0,1.8-1.5,3.3-3.3,3.3c-1.8,0-3.3-1.5-3.3-3.3c0-1.8,1.5-3.3,3.3-3.3
			C511.8,641.4,513.3,642.9,513.3,644.7z"/>
		<path class="st2" d="M546.3,644.7c0,1.8-1.5,3.3-3.3,3.3c-1.8,0-3.3-1.5-3.3-3.3c0-1.8,1.5-3.3,3.3-3.3
			C544.8,641.4,546.3,642.9,546.3,644.7z"/>
		<path class="st2" d="M579.4,644.7c0,1.8-1.5,3.3-3.3,3.3c-1.8,0-3.3-1.5-3.3-3.3c0-1.8,1.5-3.3,3.3-3.3
			C577.9,641.4,579.4,642.9,579.4,644.7z"/>
		<path class="st2" d="M612.4,644.7c0,1.8-1.5,3.3-3.3,3.3c-1.8,0-3.3-1.5-3.3-3.3c0-1.8,1.5-3.3,3.3-3.3
			C610.9,641.4,612.4,642.9,612.4,644.7z"/>
		<path class="st2" d="M645.5,644.7c0,1.8-1.5,3.3-3.3,3.3c-1.8,0-3.3-1.5-3.3-3.3c0-1.8,1.5-3.3,3.3-3.3
			C644,641.4,645.5,642.9,645.5,644.7z"/>
		<path class="st2" d="M678.5,644.7c0,1.8-1.5,3.3-3.3,3.3c-1.8,0-3.3-1.5-3.3-3.3c0-1.8,1.5-3.3,3.3-3.3
			C677.1,641.4,678.5,642.9,678.5,644.7z"/>
		<path class="st2" d="M447.1,677.7c0,1.8-1.5,3.3-3.3,3.3c-1.8,0-3.3-1.5-3.3-3.3c0-1.8,1.5-3.3,3.3-3.3
			C445.7,674.4,447.1,675.9,447.1,677.7z"/>
		<path class="st2" d="M480.2,677.7c0,1.8-1.5,3.3-3.3,3.3c-1.8,0-3.3-1.5-3.3-3.3c0-1.8,1.5-3.3,3.3-3.3
			C478.7,674.4,480.2,675.9,480.2,677.7z"/>
		<path class="st2" d="M513.3,677.7c0,1.8-1.5,3.3-3.3,3.3c-1.8,0-3.3-1.5-3.3-3.3c0-1.8,1.5-3.3,3.3-3.3
			C511.8,674.4,513.3,675.9,513.3,677.7z"/>
		<path class="st2" d="M546.3,677.7c0,1.8-1.5,3.3-3.3,3.3c-1.8,0-3.3-1.5-3.3-3.3c0-1.8,1.5-3.3,3.3-3.3
			C544.8,674.4,546.3,675.9,546.3,677.7z"/>
		<path class="st2" d="M579.4,677.7c0,1.8-1.5,3.3-3.3,3.3c-1.8,0-3.3-1.5-3.3-3.3c0-1.8,1.5-3.3,3.3-3.3
			C577.9,674.4,579.4,675.9,579.4,677.7z"/>
		<path class="st2" d="M612.4,677.7c0,1.8-1.5,3.3-3.3,3.3c-1.8,0-3.3-1.5-3.3-3.3c0-1.8,1.5-3.3,3.3-3.3
			C610.9,674.4,612.4,675.9,612.4,677.7z"/>
		<path class="st2" d="M645.5,677.7c0,1.8-1.5,3.3-3.3,3.3c-1.8,0-3.3-1.5-3.3-3.3c0-1.8,1.5-3.3,3.3-3.3
			C644,674.4,645.5,675.9,645.5,677.7z"/>
		<path class="st2" d="M678.5,677.7c0,1.8-1.5,3.3-3.3,3.3c-1.8,0-3.3-1.5-3.3-3.3c0-1.8,1.5-3.3,3.3-3.3
			C677.1,674.4,678.5,675.9,678.5,677.7z"/>
		<path class="st2" d="M447.1,710.8c0,1.8-1.5,3.3-3.3,3.3c-1.8,0-3.3-1.5-3.3-3.3c0-1.8,1.5-3.3,3.3-3.3
			C445.7,707.5,447.1,708.9,447.1,710.8z"/>
		<path class="st2" d="M480.2,710.8c0,1.8-1.5,3.3-3.3,3.3c-1.8,0-3.3-1.5-3.3-3.3s1.5-3.3,3.3-3.3
			C478.7,707.5,480.2,708.9,480.2,710.8z"/>
		<path class="st2" d="M513.3,710.8c0,1.8-1.5,3.3-3.3,3.3c-1.8,0-3.3-1.5-3.3-3.3c0-1.8,1.5-3.3,3.3-3.3
			C511.8,707.5,513.3,708.9,513.3,710.8z"/>
		<path class="st2" d="M546.3,710.8c0,1.8-1.5,3.3-3.3,3.3c-1.8,0-3.3-1.5-3.3-3.3c0-1.8,1.5-3.3,3.3-3.3
			C544.8,707.5,546.3,708.9,546.3,710.8z"/>
		<path class="st2" d="M579.4,710.8c0,1.8-1.5,3.3-3.3,3.3c-1.8,0-3.3-1.5-3.3-3.3c0-1.8,1.5-3.3,3.3-3.3
			C577.9,707.5,579.4,708.9,579.4,710.8z"/>
		<path class="st2" d="M612.4,710.8c0,1.8-1.5,3.3-3.3,3.3c-1.8,0-3.3-1.5-3.3-3.3c0-1.8,1.5-3.3,3.3-3.3
			C610.9,707.5,612.4,708.9,612.4,710.8z"/>
		<path class="st2" d="M645.5,710.8c0,1.8-1.5,3.3-3.3,3.3c-1.8,0-3.3-1.5-3.3-3.3c0-1.8,1.5-3.3,3.3-3.3
			C644,707.5,645.5,708.9,645.5,710.8z"/>
		<path class="st2" d="M678.5,710.8c0,1.8-1.5,3.3-3.3,3.3c-1.8,0-3.3-1.5-3.3-3.3c0-1.8,1.5-3.3,3.3-3.3
			C677.1,707.5,678.5,708.9,678.5,710.8z"/>
		<path class="st2" d="M447.1,743.8c0,1.8-1.5,3.3-3.3,3.3c-1.8,0-3.3-1.5-3.3-3.3c0-1.8,1.5-3.3,3.3-3.3
			C445.7,740.5,447.1,742,447.1,743.8z"/>
		<path class="st2" d="M480.2,743.8c0,1.8-1.5,3.3-3.3,3.3c-1.8,0-3.3-1.5-3.3-3.3c0-1.8,1.5-3.3,3.3-3.3
			C478.7,740.5,480.2,742,480.2,743.8z"/>
		<path class="st2" d="M513.3,743.8c0,1.8-1.5,3.3-3.3,3.3c-1.8,0-3.3-1.5-3.3-3.3c0-1.8,1.5-3.3,3.3-3.3
			C511.8,740.5,513.3,742,513.3,743.8z"/>
		<path class="st2" d="M546.3,743.8c0,1.8-1.5,3.3-3.3,3.3c-1.8,0-3.3-1.5-3.3-3.3c0-1.8,1.5-3.3,3.3-3.3
			C544.8,740.5,546.3,742,546.3,743.8z"/>
		<path class="st2" d="M579.4,743.8c0,1.8-1.5,3.3-3.3,3.3c-1.8,0-3.3-1.5-3.3-3.3c0-1.8,1.5-3.3,3.3-3.3
			C577.9,740.5,579.4,742,579.4,743.8z"/>
		<path class="st2" d="M612.4,743.8c0,1.8-1.5,3.3-3.3,3.3c-1.8,0-3.3-1.5-3.3-3.3c0-1.8,1.5-3.3,3.3-3.3
			C610.9,740.5,612.4,742,612.4,743.8z"/>
		<path class="st2" d="M645.5,743.8c0,1.8-1.5,3.3-3.3,3.3c-1.8,0-3.3-1.5-3.3-3.3c0-1.8,1.5-3.3,3.3-3.3
			C644,740.5,645.5,742,645.5,743.8z"/>
		<path class="st2" d="M678.5,743.8c0,1.8-1.5,3.3-3.3,3.3c-1.8,0-3.3-1.5-3.3-3.3c0-1.8,1.5-3.3,3.3-3.3
			C677.1,740.5,678.5,742,678.5,743.8z"/>
		<path class="st2" d="M447.1,776.8c0,1.8-1.5,3.3-3.3,3.3c-1.8,0-3.3-1.5-3.3-3.3c0-1.8,1.5-3.3,3.3-3.3
			C445.7,773.5,447.1,775,447.1,776.8z"/>
		<path class="st2" d="M480.2,776.8c0,1.8-1.5,3.3-3.3,3.3c-1.8,0-3.3-1.5-3.3-3.3c0-1.8,1.5-3.3,3.3-3.3
			C478.7,773.5,480.2,775,480.2,776.8z"/>
		<path class="st2" d="M513.3,776.8c0,1.8-1.5,3.3-3.3,3.3c-1.8,0-3.3-1.5-3.3-3.3c0-1.8,1.5-3.3,3.3-3.3
			C511.8,773.5,513.3,775,513.3,776.8z"/>
		<path class="st2" d="M546.3,776.8c0,1.8-1.5,3.3-3.3,3.3c-1.8,0-3.3-1.5-3.3-3.3c0-1.8,1.5-3.3,3.3-3.3
			C544.8,773.5,546.3,775,546.3,776.8z"/>
		<path class="st2" d="M579.4,776.8c0,1.8-1.5,3.3-3.3,3.3c-1.8,0-3.3-1.5-3.3-3.3c0-1.8,1.5-3.3,3.3-3.3
			C577.9,773.5,579.4,775,579.4,776.8z"/>
		<path class="st2" d="M612.4,776.8c0,1.8-1.5,3.3-3.3,3.3c-1.8,0-3.3-1.5-3.3-3.3c0-1.8,1.5-3.3,3.3-3.3
			C610.9,773.5,612.4,775,612.4,776.8z"/>
		<path class="st2" d="M645.5,776.8c0,1.8-1.5,3.3-3.3,3.3c-1.8,0-3.3-1.5-3.3-3.3c0-1.8,1.5-3.3,3.3-3.3
			C644,773.5,645.5,775,645.5,776.8z"/>
		<path class="st2" d="M678.5,776.8c0,1.8-1.5,3.3-3.3,3.3c-1.8,0-3.3-1.5-3.3-3.3c0-1.8,1.5-3.3,3.3-3.3
			C677.1,773.5,678.5,775,678.5,776.8z"/>
		<path class="st2" d="M447.1,809.8c0,1.8-1.5,3.3-3.3,3.3c-1.8,0-3.3-1.5-3.3-3.3c0-1.8,1.5-3.3,3.3-3.3
			C445.7,806.5,447.1,808,447.1,809.8z"/>
		<path class="st2" d="M480.2,809.8c0,1.8-1.5,3.3-3.3,3.3c-1.8,0-3.3-1.5-3.3-3.3c0-1.8,1.5-3.3,3.3-3.3
			C478.7,806.5,480.2,808,480.2,809.8z"/>
		<path class="st2" d="M513.3,809.8c0,1.8-1.5,3.3-3.3,3.3c-1.8,0-3.3-1.5-3.3-3.3c0-1.8,1.5-3.3,3.3-3.3
			C511.8,806.5,513.3,808,513.3,809.8z"/>
		<path class="st2" d="M546.3,809.8c0,1.8-1.5,3.3-3.3,3.3c-1.8,0-3.3-1.5-3.3-3.3c0-1.8,1.5-3.3,3.3-3.3
			C544.8,806.5,546.3,808,546.3,809.8z"/>
		<path class="st2" d="M579.4,809.8c0,1.8-1.5,3.3-3.3,3.3c-1.8,0-3.3-1.5-3.3-3.3c0-1.8,1.5-3.3,3.3-3.3
			C577.9,806.5,579.4,808,579.4,809.8z"/>
		<path class="st2" d="M612.4,809.8c0,1.8-1.5,3.3-3.3,3.3c-1.8,0-3.3-1.5-3.3-3.3c0-1.8,1.5-3.3,3.3-3.3
			C610.9,806.5,612.4,808,612.4,809.8z"/>
		<path class="st2" d="M645.5,809.8c0,1.8-1.5,3.3-3.3,3.3c-1.8,0-3.3-1.5-3.3-3.3c0-1.8,1.5-3.3,3.3-3.3
			C644,806.5,645.5,808,645.5,809.8z"/>
		<path class="st2" d="M678.5,809.8c0,1.8-1.5,3.3-3.3,3.3c-1.8,0-3.3-1.5-3.3-3.3c0-1.8,1.5-3.3,3.3-3.3
			C677.1,806.5,678.5,808,678.5,809.8z"/>
		<path class="st2" d="M447.1,842.9c0,1.8-1.5,3.3-3.3,3.3c-1.8,0-3.3-1.5-3.3-3.3c0-1.8,1.5-3.3,3.3-3.3
			C445.7,839.6,447.1,841,447.1,842.9z"/>
		<path class="st2" d="M480.2,842.9c0,1.8-1.5,3.3-3.3,3.3c-1.8,0-3.3-1.5-3.3-3.3c0-1.8,1.5-3.3,3.3-3.3
			C478.7,839.6,480.2,841,480.2,842.9z"/>
		<path class="st2" d="M513.3,842.9c0,1.8-1.5,3.3-3.3,3.3c-1.8,0-3.3-1.5-3.3-3.3c0-1.8,1.5-3.3,3.3-3.3
			C511.8,839.6,513.3,841,513.3,842.9z"/>
		<path class="st2" d="M546.3,842.9c0,1.8-1.5,3.3-3.3,3.3c-1.8,0-3.3-1.5-3.3-3.3c0-1.8,1.5-3.3,3.3-3.3
			C544.8,839.6,546.3,841,546.3,842.9z"/>
		<path class="st2" d="M579.4,842.9c0,1.8-1.5,3.3-3.3,3.3c-1.8,0-3.3-1.5-3.3-3.3c0-1.8,1.5-3.3,3.3-3.3
			C577.9,839.6,579.4,841,579.4,842.9z"/>
		<path class="st2" d="M612.4,842.9c0,1.8-1.5,3.3-3.3,3.3c-1.8,0-3.3-1.5-3.3-3.3c0-1.8,1.5-3.3,3.3-3.3
			C610.9,839.6,612.4,841,612.4,842.9z"/>
		<path class="st2" d="M645.5,842.9c0,1.8-1.5,3.3-3.3,3.3c-1.8,0-3.3-1.5-3.3-3.3c0-1.8,1.5-3.3,3.3-3.3
			C644,839.6,645.5,841,645.5,842.9z"/>
		<path class="st2" d="M678.5,842.9c0,1.8-1.5,3.3-3.3,3.3c-1.8,0-3.3-1.5-3.3-3.3c0-1.8,1.5-3.3,3.3-3.3
			C677.1,839.6,678.5,841,678.5,842.9z"/>
		<path class="st2" d="M447.1,875.9c0,1.8-1.5,3.3-3.3,3.3c-1.8,0-3.3-1.5-3.3-3.3c0-1.8,1.5-3.3,3.3-3.3
			C445.7,872.6,447.1,874.1,447.1,875.9z"/>
		<path class="st2" d="M480.2,875.9c0,1.8-1.5,3.3-3.3,3.3c-1.8,0-3.3-1.5-3.3-3.3c0-1.8,1.5-3.3,3.3-3.3
			C478.7,872.6,480.2,874.1,480.2,875.9z"/>
		<path class="st2" d="M513.3,875.9c0,1.8-1.5,3.3-3.3,3.3c-1.8,0-3.3-1.5-3.3-3.3c0-1.8,1.5-3.3,3.3-3.3
			C511.8,872.6,513.3,874.1,513.3,875.9z"/>
		<path class="st2" d="M546.3,875.9c0,1.8-1.5,3.3-3.3,3.3c-1.8,0-3.3-1.5-3.3-3.3c0-1.8,1.5-3.3,3.3-3.3
			C544.8,872.6,546.3,874.1,546.3,875.9z"/>
		<path class="st2" d="M579.4,875.9c0,1.8-1.5,3.3-3.3,3.3c-1.8,0-3.3-1.5-3.3-3.3c0-1.8,1.5-3.3,3.3-3.3
			C577.9,872.6,579.4,874.1,579.4,875.9z"/>
		<path class="st2" d="M612.4,875.9c0,1.8-1.5,3.3-3.3,3.3c-1.8,0-3.3-1.5-3.3-3.3c0-1.8,1.5-3.3,3.3-3.3
			C610.9,872.6,612.4,874.1,612.4,875.9z"/>
		<path class="st2" d="M645.5,875.9c0,1.8-1.5,3.3-3.3,3.3c-1.8,0-3.3-1.5-3.3-3.3c0-1.8,1.5-3.3,3.3-3.3
			C644,872.6,645.5,874.1,645.5,875.9z"/>
		<path class="st2" d="M678.5,875.9c0,1.8-1.5,3.3-3.3,3.3c-1.8,0-3.3-1.5-3.3-3.3c0-1.8,1.5-3.3,3.3-3.3
			C677.1,872.6,678.5,874.1,678.5,875.9z"/>
		<path class="st2" d="M38.7,282.6c0,1.8-1.5,3.3-3.3,3.3c-1.8,0-3.3-1.5-3.3-3.3s1.5-3.3,3.3-3.3C37.2,279.3,38.7,280.8,38.7,282.6
			z"/>
		<path class="st2" d="M71.7,282.6c0,1.8-1.5,3.3-3.3,3.3c-1.8,0-3.3-1.5-3.3-3.3s1.5-3.3,3.3-3.3C70.2,279.3,71.7,280.8,71.7,282.6
			z"/>
		<path class="st2" d="M104.8,282.6c0,1.8-1.5,3.3-3.3,3.3c-1.8,0-3.3-1.5-3.3-3.3s1.5-3.3,3.3-3.3
			C103.3,279.3,104.8,280.8,104.8,282.6z"/>
		<path class="st2" d="M137.8,282.6c0,1.8-1.5,3.3-3.3,3.3c-1.8,0-3.3-1.5-3.3-3.3s1.5-3.3,3.3-3.3
			C136.3,279.3,137.8,280.8,137.8,282.6z"/>
		<path class="st2" d="M170.9,282.6c0,1.8-1.5,3.3-3.3,3.3c-1.8,0-3.3-1.5-3.3-3.3s1.5-3.3,3.3-3.3
			C169.4,279.3,170.9,280.8,170.9,282.6z"/>
		<path class="st2" d="M203.9,282.6c0,1.8-1.5,3.3-3.3,3.3c-1.8,0-3.3-1.5-3.3-3.3s1.5-3.3,3.3-3.3
			C202.5,279.3,203.9,280.8,203.9,282.6z"/>
		<path class="st2" d="M237,282.6c0,1.8-1.5,3.3-3.3,3.3c-1.8,0-3.3-1.5-3.3-3.3s1.5-3.3,3.3-3.3C235.5,279.3,237,280.8,237,282.6z"
			/>
		<path class="st2" d="M270.1,282.6c0,1.8-1.5,3.3-3.3,3.3c-1.8,0-3.3-1.5-3.3-3.3s1.5-3.3,3.3-3.3
			C268.6,279.3,270.1,280.8,270.1,282.6z"/>
		<path class="st2" d="M38.7,315.6c0,1.8-1.5,3.3-3.3,3.3c-1.8,0-3.3-1.5-3.3-3.3s1.5-3.3,3.3-3.3C37.2,312.3,38.7,313.8,38.7,315.6
			z"/>
		<path class="st2" d="M71.7,315.6c0,1.8-1.5,3.3-3.3,3.3c-1.8,0-3.3-1.5-3.3-3.3s1.5-3.3,3.3-3.3C70.2,312.3,71.7,313.8,71.7,315.6
			z"/>
		<path class="st2" d="M104.8,315.6c0,1.8-1.5,3.3-3.3,3.3c-1.8,0-3.3-1.5-3.3-3.3s1.5-3.3,3.3-3.3
			C103.3,312.3,104.8,313.8,104.8,315.6z"/>
		<path class="st2" d="M137.8,315.6c0,1.8-1.5,3.3-3.3,3.3c-1.8,0-3.3-1.5-3.3-3.3s1.5-3.3,3.3-3.3
			C136.3,312.3,137.8,313.8,137.8,315.6z"/>
		<path class="st2" d="M170.9,315.6c0,1.8-1.5,3.3-3.3,3.3c-1.8,0-3.3-1.5-3.3-3.3s1.5-3.3,3.3-3.3
			C169.4,312.3,170.9,313.8,170.9,315.6z"/>
		<path class="st2" d="M203.9,315.6c0,1.8-1.5,3.3-3.3,3.3c-1.8,0-3.3-1.5-3.3-3.3s1.5-3.3,3.3-3.3
			C202.5,312.3,203.9,313.8,203.9,315.6z"/>
		<path class="st2" d="M237,315.6c0,1.8-1.5,3.3-3.3,3.3c-1.8,0-3.3-1.5-3.3-3.3s1.5-3.3,3.3-3.3C235.5,312.3,237,313.8,237,315.6z"
			/>
		<path class="st2" d="M270.1,315.6c0,1.8-1.5,3.3-3.3,3.3c-1.8,0-3.3-1.5-3.3-3.3s1.5-3.3,3.3-3.3
			C268.6,312.3,270.1,313.8,270.1,315.6z"/>
		<path class="st2" d="M38.7,348.6c0,1.8-1.5,3.3-3.3,3.3c-1.8,0-3.3-1.5-3.3-3.3c0-1.8,1.5-3.3,3.3-3.3
			C37.2,345.3,38.7,346.8,38.7,348.6z"/>
		<path class="st2" d="M71.7,348.6c0,1.8-1.5,3.3-3.3,3.3c-1.8,0-3.3-1.5-3.3-3.3c0-1.8,1.5-3.3,3.3-3.3
			C70.2,345.3,71.7,346.8,71.7,348.6z"/>
		<path class="st2" d="M104.8,348.6c0,1.8-1.5,3.3-3.3,3.3c-1.8,0-3.3-1.5-3.3-3.3c0-1.8,1.5-3.3,3.3-3.3
			C103.3,345.3,104.8,346.8,104.8,348.6z"/>
		<path class="st2" d="M137.8,348.6c0,1.8-1.5,3.3-3.3,3.3c-1.8,0-3.3-1.5-3.3-3.3c0-1.8,1.5-3.3,3.3-3.3
			C136.3,345.3,137.8,346.8,137.8,348.6z"/>
		<path class="st2" d="M170.9,348.6c0,1.8-1.5,3.3-3.3,3.3c-1.8,0-3.3-1.5-3.3-3.3c0-1.8,1.5-3.3,3.3-3.3
			C169.4,345.3,170.9,346.8,170.9,348.6z"/>
		<path class="st2" d="M203.9,348.6c0,1.8-1.5,3.3-3.3,3.3c-1.8,0-3.3-1.5-3.3-3.3c0-1.8,1.5-3.3,3.3-3.3
			C202.5,345.3,203.9,346.8,203.9,348.6z"/>
		<path class="st2" d="M237,348.6c0,1.8-1.5,3.3-3.3,3.3c-1.8,0-3.3-1.5-3.3-3.3c0-1.8,1.5-3.3,3.3-3.3
			C235.5,345.3,237,346.8,237,348.6z"/>
		<path class="st2" d="M270.1,348.6c0,1.8-1.5,3.3-3.3,3.3c-1.8,0-3.3-1.5-3.3-3.3c0-1.8,1.5-3.3,3.3-3.3
			C268.6,345.3,270.1,346.8,270.1,348.6z"/>
		<path class="st2" d="M38.7,381.7c0,1.8-1.5,3.3-3.3,3.3c-1.8,0-3.3-1.5-3.3-3.3c0-1.8,1.5-3.3,3.3-3.3
			C37.2,378.4,38.7,379.8,38.7,381.7z"/>
		<path class="st2" d="M71.7,381.7c0,1.8-1.5,3.3-3.3,3.3c-1.8,0-3.3-1.5-3.3-3.3c0-1.8,1.5-3.3,3.3-3.3
			C70.2,378.4,71.7,379.8,71.7,381.7z"/>
		<path class="st2" d="M104.8,381.7c0,1.8-1.5,3.3-3.3,3.3c-1.8,0-3.3-1.5-3.3-3.3c0-1.8,1.5-3.3,3.3-3.3
			C103.3,378.4,104.8,379.8,104.8,381.7z"/>
		<path class="st2" d="M137.8,381.7c0,1.8-1.5,3.3-3.3,3.3c-1.8,0-3.3-1.5-3.3-3.3c0-1.8,1.5-3.3,3.3-3.3
			C136.3,378.4,137.8,379.8,137.8,381.7z"/>
		<path class="st2" d="M170.9,381.7c0,1.8-1.5,3.3-3.3,3.3c-1.8,0-3.3-1.5-3.3-3.3c0-1.8,1.5-3.3,3.3-3.3
			C169.4,378.4,170.9,379.8,170.9,381.7z"/>
		<path class="st2" d="M203.9,381.7c0,1.8-1.5,3.3-3.3,3.3c-1.8,0-3.3-1.5-3.3-3.3c0-1.8,1.5-3.3,3.3-3.3
			C202.5,378.4,203.9,379.8,203.9,381.7z"/>
		<path class="st2" d="M237,381.7c0,1.8-1.5,3.3-3.3,3.3c-1.8,0-3.3-1.5-3.3-3.3c0-1.8,1.5-3.3,3.3-3.3
			C235.5,378.4,237,379.8,237,381.7z"/>
		<path class="st2" d="M270.1,381.7c0,1.8-1.5,3.3-3.3,3.3c-1.8,0-3.3-1.5-3.3-3.3c0-1.8,1.5-3.3,3.3-3.3
			C268.6,378.4,270.1,379.8,270.1,381.7z"/>
		<path class="st2" d="M38.7,414.7c0,1.8-1.5,3.3-3.3,3.3c-1.8,0-3.3-1.5-3.3-3.3c0-1.8,1.5-3.3,3.3-3.3
			C37.2,411.4,38.7,412.9,38.7,414.7z"/>
		<path class="st2" d="M71.7,414.7c0,1.8-1.5,3.3-3.3,3.3c-1.8,0-3.3-1.5-3.3-3.3c0-1.8,1.5-3.3,3.3-3.3
			C70.2,411.4,71.7,412.9,71.7,414.7z"/>
		<path class="st2" d="M104.8,414.7c0,1.8-1.5,3.3-3.3,3.3c-1.8,0-3.3-1.5-3.3-3.3c0-1.8,1.5-3.3,3.3-3.3
			C103.3,411.4,104.8,412.9,104.8,414.7z"/>
		<path class="st2" d="M137.8,414.7c0,1.8-1.5,3.3-3.3,3.3c-1.8,0-3.3-1.5-3.3-3.3c0-1.8,1.5-3.3,3.3-3.3
			C136.3,411.4,137.8,412.9,137.8,414.7z"/>
		<path class="st2" d="M170.9,414.7c0,1.8-1.5,3.3-3.3,3.3c-1.8,0-3.3-1.5-3.3-3.3c0-1.8,1.5-3.3,3.3-3.3
			C169.4,411.4,170.9,412.9,170.9,414.7z"/>
		<path class="st2" d="M203.9,414.7c0,1.8-1.5,3.3-3.3,3.3c-1.8,0-3.3-1.5-3.3-3.3c0-1.8,1.5-3.3,3.3-3.3
			C202.5,411.4,203.9,412.9,203.9,414.7z"/>
		<path class="st2" d="M237,414.7c0,1.8-1.5,3.3-3.3,3.3c-1.8,0-3.3-1.5-3.3-3.3c0-1.8,1.5-3.3,3.3-3.3
			C235.5,411.4,237,412.9,237,414.7z"/>
		<path class="st2" d="M270.1,414.7c0,1.8-1.5,3.3-3.3,3.3c-1.8,0-3.3-1.5-3.3-3.3c0-1.8,1.5-3.3,3.3-3.3
			C268.6,411.4,270.1,412.9,270.1,414.7z"/>
		<path class="st2" d="M38.7,447.7c0,1.8-1.5,3.3-3.3,3.3c-1.8,0-3.3-1.5-3.3-3.3s1.5-3.3,3.3-3.3C37.2,444.4,38.7,445.9,38.7,447.7
			z"/>
		<path class="st2" d="M71.7,447.7c0,1.8-1.5,3.3-3.3,3.3c-1.8,0-3.3-1.5-3.3-3.3s1.5-3.3,3.3-3.3C70.2,444.4,71.7,445.9,71.7,447.7
			z"/>
		<path class="st2" d="M104.8,447.7c0,1.8-1.5,3.3-3.3,3.3c-1.8,0-3.3-1.5-3.3-3.3s1.5-3.3,3.3-3.3
			C103.3,444.4,104.8,445.9,104.8,447.7z"/>
		<path class="st2" d="M137.8,447.7c0,1.8-1.5,3.3-3.3,3.3c-1.8,0-3.3-1.5-3.3-3.3s1.5-3.3,3.3-3.3
			C136.3,444.4,137.8,445.9,137.8,447.7z"/>
		<path class="st2" d="M170.9,447.7c0,1.8-1.5,3.3-3.3,3.3c-1.8,0-3.3-1.5-3.3-3.3s1.5-3.3,3.3-3.3
			C169.4,444.4,170.9,445.9,170.9,447.7z"/>
		<path class="st2" d="M203.9,447.7c0,1.8-1.5,3.3-3.3,3.3c-1.8,0-3.3-1.5-3.3-3.3s1.5-3.3,3.3-3.3
			C202.5,444.4,203.9,445.9,203.9,447.7z"/>
		<path class="st2" d="M237,447.7c0,1.8-1.5,3.3-3.3,3.3c-1.8,0-3.3-1.5-3.3-3.3s1.5-3.3,3.3-3.3C235.5,444.4,237,445.9,237,447.7z"
			/>
		<path class="st2" d="M270.1,447.7c0,1.8-1.5,3.3-3.3,3.3c-1.8,0-3.3-1.5-3.3-3.3s1.5-3.3,3.3-3.3
			C268.6,444.4,270.1,445.9,270.1,447.7z"/>
		<path class="st2" d="M38.7,480.7c0,1.8-1.5,3.3-3.3,3.3c-1.8,0-3.3-1.5-3.3-3.3s1.5-3.3,3.3-3.3C37.2,477.4,38.7,478.9,38.7,480.7
			z"/>
		<path class="st2" d="M71.7,480.7c0,1.8-1.5,3.3-3.3,3.3c-1.8,0-3.3-1.5-3.3-3.3s1.5-3.3,3.3-3.3C70.2,477.4,71.7,478.9,71.7,480.7
			z"/>
		<path class="st2" d="M104.8,480.7c0,1.8-1.5,3.3-3.3,3.3c-1.8,0-3.3-1.5-3.3-3.3s1.5-3.3,3.3-3.3
			C103.3,477.4,104.8,478.9,104.8,480.7z"/>
		<path class="st2" d="M137.8,480.7c0,1.8-1.5,3.3-3.3,3.3c-1.8,0-3.3-1.5-3.3-3.3s1.5-3.3,3.3-3.3
			C136.3,477.4,137.8,478.9,137.8,480.7z"/>
		<path class="st2" d="M170.9,480.7c0,1.8-1.5,3.3-3.3,3.3c-1.8,0-3.3-1.5-3.3-3.3s1.5-3.3,3.3-3.3
			C169.4,477.4,170.9,478.9,170.9,480.7z"/>
		<path class="st2" d="M203.9,480.7c0,1.8-1.5,3.3-3.3,3.3c-1.8,0-3.3-1.5-3.3-3.3s1.5-3.3,3.3-3.3
			C202.5,477.4,203.9,478.9,203.9,480.7z"/>
		<path class="st2" d="M237,480.7c0,1.8-1.5,3.3-3.3,3.3c-1.8,0-3.3-1.5-3.3-3.3s1.5-3.3,3.3-3.3C235.5,477.4,237,478.9,237,480.7z"
			/>
		<path class="st2" d="M270.1,480.7c0,1.8-1.5,3.3-3.3,3.3c-1.8,0-3.3-1.5-3.3-3.3s1.5-3.3,3.3-3.3
			C268.6,477.4,270.1,478.9,270.1,480.7z"/>
		<path class="st2" d="M38.7,513.8c0,1.8-1.5,3.3-3.3,3.3c-1.8,0-3.3-1.5-3.3-3.3c0-1.8,1.5-3.3,3.3-3.3
			C37.2,510.5,38.7,511.9,38.7,513.8z"/>
		<path class="st2" d="M71.7,513.8c0,1.8-1.5,3.3-3.3,3.3c-1.8,0-3.3-1.5-3.3-3.3c0-1.8,1.5-3.3,3.3-3.3
			C70.2,510.5,71.7,511.9,71.7,513.8z"/>
		<path class="st2" d="M104.8,513.8c0,1.8-1.5,3.3-3.3,3.3c-1.8,0-3.3-1.5-3.3-3.3c0-1.8,1.5-3.3,3.3-3.3
			C103.3,510.5,104.8,511.9,104.8,513.8z"/>
		<path class="st2" d="M137.8,513.8c0,1.8-1.5,3.3-3.3,3.3c-1.8,0-3.3-1.5-3.3-3.3c0-1.8,1.5-3.3,3.3-3.3
			C136.3,510.5,137.8,511.9,137.8,513.8z"/>
		<path class="st2" d="M170.9,513.8c0,1.8-1.5,3.3-3.3,3.3c-1.8,0-3.3-1.5-3.3-3.3c0-1.8,1.5-3.3,3.3-3.3
			C169.4,510.5,170.9,511.9,170.9,513.8z"/>
		<path class="st2" d="M203.9,513.8c0,1.8-1.5,3.3-3.3,3.3c-1.8,0-3.3-1.5-3.3-3.3c0-1.8,1.5-3.3,3.3-3.3
			C202.5,510.5,203.9,511.9,203.9,513.8z"/>
		<path class="st2" d="M237,513.8c0,1.8-1.5,3.3-3.3,3.3c-1.8,0-3.3-1.5-3.3-3.3c0-1.8,1.5-3.3,3.3-3.3
			C235.5,510.5,237,511.9,237,513.8z"/>
		<path class="st2" d="M270.1,513.8c0,1.8-1.5,3.3-3.3,3.3c-1.8,0-3.3-1.5-3.3-3.3c0-1.8,1.5-3.3,3.3-3.3
			C268.6,510.5,270.1,511.9,270.1,513.8z"/>
		<path class="st2" d="M220.5,454.4c-2.5,0-4.6,2.2-4.6,4.8h1.5c0-1.8,1.4-3.2,3.1-3.2V454.4z"/>
		<path class="st2" d="M286.3,533.2c2.4,9-3.4,18.3-12.9,20.9l2.2,8.1c14.2-3.8,22.9-17.8,19.3-31.3c-3.6-13.5-18.2-21.3-32.4-17.5
			l2.2,8.1C274.2,519,283.9,524.3,286.3,533.2z"/>
		<path class="st2" d="M382.8,416.8c1.6,5.8-2.2,11.8-8.3,13.4l1.4,5.2c9.2-2.4,14.7-11.5,12.4-20.1c-2.3-8.7-11.7-13.7-20.8-11.3
			l1.4,5.2C375.1,407.7,381.3,411,382.8,416.8z"/>
	</g>
</g>
</svg>
