<?xml version="1.0" encoding="utf-8"?>
<!-- Generator: Adobe Illustrator 24.3.0, SVG Export Plug-In . SVG Version: 6.00 Build 0)  -->
<svg version="1.1" id="Capa_1" xmlns="http://www.w3.org/2000/svg" xmlns:xlink="http://www.w3.org/1999/xlink" x="0px" y="0px"
	 viewBox="0 0 379 98.4" style="enable-background:new 0 0 379 98.4;" xml:space="preserve">
<style type="text/css">
	.st0{fill:none;stroke:#0075FF;stroke-width:6;stroke-linecap:round;}
	.st1{fill:#0075FF;}
</style>
<path class="st0" d="M3,3c0,0,58.5,79,186.5,79C312.6,82,376,3,376,3"/>
<path class="st1" d="M191.1,97.7c-0.1,0.1-0.2,0.2-0.2,0.2c-0.8,0.7-1.9,0.7-2.7,0c0,0-0.1-0.1-0.2-0.2L174,83
	c-0.2-0.2-0.3-0.3-0.4-0.4c-1-1.2-0.2-3.1,1.4-3.2c0.1,0,0.2,0,0.6,0h27.9c0.3,0,0.5,0,0.6,0c1.6,0.1,2.4,2,1.4,3.2
	c-0.1,0.1-0.2,0.2-0.4,0.4L191.1,97.7z"/>
</svg>
